<svg version="1.0" xmlns="http://www.w3.org/2000/svg" width="225.000000pt" height="225.000000pt" viewBox="0 0 225.000000 225.000000" preserveAspectRatio="xMidYMid meet" style="width: 921.553px; height: auto;"> <g transform="translate(0.000000,225.000000) scale(0.100000,-0.100000)" fill="#000000" stroke="none"> <path d="M1009 2050 c-382 -48 -683 -316 -780 -695 -32 -125 -32 -330 -1 -459 41 -164 122 -309 240 -430 119 -122 284 -213 457 -252 121 -27 312 -23 436 9 388 101 655 429 685 842 14 200 -47 429 -159 595 -46 68 -165 187 -231 232 -182 125 -431 185 -647 158z m168 -622 c110 -112 208 -217 217 -235 25 -49 20 -102 -13 -154 -16 -24 -115 -129 -220 -233 l-191 -190 -45 44 c-50 49 -85 112 -85 153 0 51 27 92 135 200 124 125 126 94 -12 233 -46 46 -92 98 -103 116 -24 40 -26 98 -4 140 16 32 102 128 113 128 4 0 97 -91 208 -202z" class=""></path> </g> </svg>